<svg width="259" height="259" viewBox="0 0 259 259" fill="none" xmlns="http://www.w3.org/2000/svg">
<g clip-path="url(#clip0_37_102)">
<path d="M41.1617 51.2938C55.2678 51.2938 66.703 39.8585 66.703 25.7524C66.703 11.6463 55.2678 0.21106 41.1617 0.21106C27.0556 0.21106 15.6203 11.6463 15.6203 25.7524C15.6203 39.8585 27.0556 51.2938 41.1617 51.2938Z" fill="black"/>
<path d="M12.6651 140.792H15.1982V191.452C15.1982 198.42 20.8975 204.118 27.8633 204.118H54.4601C61.4259 204.118 67.1252 198.42 67.1252 191.452V188.499C64.8033 184.064 63.3257 179 63.3257 173.723V107.442C63.3257 94.5662 71.1359 83.3786 82.3234 78.5237V73.4576C82.3234 66.4918 76.6241 60.7925 69.6583 60.7925H12.6651C5.69931 60.7925 0 66.4918 0 73.4576V128.129C0 135.095 5.48823 140.792 12.6651 140.792Z" fill="black"/>
<path d="M218.052 51.2938C232.158 51.2938 243.593 39.8585 243.593 25.7524C243.593 11.6463 232.158 0.21106 218.052 0.21106C203.945 0.21106 192.51 11.6463 192.51 25.7524C192.51 39.8585 203.945 51.2938 218.052 51.2938Z" fill="black"/>
<path d="M176.677 73.2467V78.3127C187.866 83.1677 195.674 94.3552 195.674 107.231V173.301C195.674 178.578 194.408 183.644 191.877 188.077V191.032C191.877 197.998 197.574 203.698 204.542 203.698H231.139C238.105 203.698 243.804 197.998 243.804 191.032V140.372H246.335C253.303 140.372 259 134.673 259 127.707V73.2467C259 66.2809 253.303 60.5815 246.335 60.5815H189.342C182.378 60.5815 176.677 66.2787 176.677 73.2467Z" fill="black"/>
<path d="M82.5345 107.44V128.127V173.721C82.5345 180.687 88.2338 186.387 95.1996 186.387H100.055V246.124C100.055 253.09 105.754 258.789 112.72 258.789H146.705C153.67 258.789 159.37 253.09 159.37 246.124V186.175H164.225C171.19 186.175 176.89 180.478 176.89 173.51V128.129V107.443C176.89 100.477 171.19 94.7775 164.225 94.7775H95.1996C88.0227 94.7754 82.5345 100.477 82.5345 107.44Z" fill="black"/>
<path d="M129.607 84.2231C145.811 84.2231 158.948 71.0868 158.948 54.8822C158.948 38.6777 145.811 25.5413 129.607 25.5413C113.402 25.5413 100.266 38.6777 100.266 54.8822C100.266 71.0868 113.402 84.2231 129.607 84.2231Z" fill="black"/>
</g>
<defs>
<clipPath id="clip0_37_102">
<rect width="259" height="259" fill="white"/>
</clipPath>
</defs>
</svg>
