<svg width="117" height="17" viewBox="0 0 117 17" fill="none" xmlns="http://www.w3.org/2000/svg">
<path d="M0.519959 13.7678L0 15.4182C0.949505 16.0964 2.12508 16.4129 3.48151 16.4129C4.70231 16.4129 5.65181 16.232 6.37524 15.8251C7.09868 15.4408 7.64125 14.8982 8.02558 14.1748C8.4099 13.4739 8.65857 12.6149 8.77161 11.6201C8.88465 10.6254 8.95247 9.49505 8.95247 8.27426V0.113037H6.91782V8.27426C6.91782 9.31419 6.87261 10.2185 6.80479 10.9871C6.71436 11.7784 6.55611 12.434 6.33004 12.9766C6.10396 13.5191 5.76485 13.9035 5.3127 14.1748C4.86056 14.446 4.25016 14.5817 3.48151 14.5817C2.8259 14.5817 2.23811 14.5139 1.74075 14.333C1.22078 14.1748 0.813854 13.9939 0.519959 13.7678V13.7678Z" fill="white"/>
<path d="M24.3962 2.30594L23.5145 4.70231L25.5492 9.87938H21.5251L20.9147 11.4619H26.0013L27.9003 16.1642H30.0706L24.3962 2.30594ZM23.5145 0.113037H21.7964L15.2177 16.1642H17.2975L22.6554 2.46419L23.5145 0.113037Z" fill="white"/>
<path d="M48.4518 9.44984C47.9092 8.72641 47.1858 8.20644 46.2815 7.93515C47.0049 7.61865 47.5701 7.09868 47.9771 6.42046C48.384 5.76485 48.5874 5.01881 48.5874 4.20495C48.5874 3.70759 48.497 3.23284 48.3162 2.73548C48.1353 2.23812 47.8866 1.80858 47.5927 1.42426C47.2762 1.03993 46.8919 0.723433 46.4398 0.474754C45.9876 0.248681 45.4676 0.113037 44.9251 0.113037H36.9447V12.547H38.9794V1.8764H44.2242C44.5407 1.8764 44.8573 1.94423 45.1511 2.07987C45.445 2.23812 45.6937 2.41898 45.8972 2.64505C46.1006 2.89373 46.2589 3.18763 46.3945 3.50413C46.5076 3.84324 46.5754 4.20495 46.5754 4.56667C46.5754 4.95099 46.5076 5.2901 46.3719 5.6066C46.2363 5.9231 46.078 6.217 45.852 6.44307C45.6259 6.69175 45.3772 6.89522 45.0833 7.03086C44.7668 7.1665 44.4277 7.23433 44.0886 7.23433H41.014V8.88466H44.7216C45.0833 8.88466 45.3998 8.97509 45.7163 9.11073C46.0102 9.26898 46.2589 9.47245 46.485 9.72113C46.711 9.99241 46.8693 10.2863 47.0049 10.6254C47.1406 10.9645 47.2084 11.3036 47.2084 11.6654C47.2084 12.0271 47.1406 12.3888 47.0049 12.7053C46.8467 13.0444 46.6658 13.3383 46.4398 13.587C46.1911 13.8356 45.8972 14.0391 45.6033 14.1748C45.2868 14.333 44.9251 14.4008 44.5634 14.4008H36.9447V16.1642H44.5634C45.1964 16.1642 45.8068 16.0738 46.3719 15.8703C46.9371 15.6894 47.4345 15.3955 47.864 15.0338C48.2935 14.6721 48.6327 14.2426 48.8813 13.7226C49.13 13.2253 49.2657 12.6601 49.2657 12.0271C49.2657 11.0323 48.9944 10.1733 48.4518 9.44984V9.44984Z" fill="white"/>
<path d="M68.351 9.44984C67.8084 8.72641 67.085 8.20644 66.1807 7.93515C66.9041 7.61865 67.4693 7.09868 67.8762 6.42046C68.2831 5.76485 68.4866 5.01881 68.4866 4.20495C68.4866 3.70759 68.3962 3.23284 68.2153 2.73548C68.0345 2.23812 67.7858 1.80858 67.4919 1.42426C67.1754 1.03993 66.7911 0.723433 66.3389 0.474754C65.8868 0.248681 65.3668 0.113037 64.8242 0.113037H56.8439V12.547H58.8785V1.8764H64.1234C64.4399 1.8764 64.7564 1.94423 65.0503 2.07987C65.3442 2.23812 65.5929 2.41898 65.7964 2.64505C65.9998 2.89373 66.1581 3.18763 66.2937 3.50413C66.4067 3.84324 66.4746 4.20495 66.4746 4.56667C66.4746 4.95099 66.4067 5.2901 66.2711 5.6066C66.1355 5.9231 65.9772 6.217 65.7511 6.44307C65.5251 6.69175 65.2764 6.89522 64.9825 7.03086C64.666 7.1665 64.3269 7.23433 63.9878 7.23433H60.9132V8.88466H64.6208C64.9825 8.88466 65.299 8.97509 65.6155 9.11073C65.9094 9.26898 66.1581 9.47245 66.3841 9.72113C66.6102 9.99241 66.7685 10.2863 66.9041 10.6254C67.0397 10.9645 67.1076 11.3036 67.1076 11.6654C67.1076 12.0271 67.0397 12.3888 66.9041 12.7053C66.7458 13.0444 66.565 13.3383 66.3389 13.587C66.0902 13.8356 65.7963 14.0391 65.5025 14.1748C65.1859 14.333 64.8242 14.4008 64.4625 14.4008H56.8439V16.1642H64.4625C65.0955 16.1642 65.7059 16.0738 66.2711 15.8703C66.8363 15.6894 67.3336 15.3955 67.7632 15.0338C68.1927 14.6721 68.5318 14.2426 68.7805 13.7226C69.0292 13.2253 69.1648 12.6601 69.1648 12.0271C69.1648 11.0323 68.8935 10.1733 68.351 9.44984V9.44984Z" fill="white"/>
<path d="M76.7429 16.1642H78.7776V0.113037H76.7429V16.1642Z" fill="white"/>
<path d="M91.3269 16.1642H93.3615V3.95627H91.3269V16.1642ZM85.7881 0.113037V1.92162H98.9003V0.113037H85.7881Z" fill="white"/>
<path d="M115.327 3.48153L116.277 1.8312C115.598 1.28863 114.807 0.836484 113.948 0.497375C113.066 0.180873 112.094 1.52588e-05 111.009 1.52588e-05C110.173 1.52588e-05 109.404 0.113051 108.703 0.316517C107.98 0.519982 107.369 0.813877 106.872 1.22081C106.352 1.62774 105.945 2.1251 105.674 2.71289C105.38 3.30068 105.244 3.97889 105.244 4.74754C105.244 5.38054 105.335 5.92312 105.561 6.37526C105.764 6.82741 106.081 7.21173 106.488 7.52823C106.895 7.84473 107.414 8.11602 108.047 8.34209C108.658 8.56817 109.381 8.79424 110.195 8.9751C110.919 9.15596 111.574 9.33681 112.162 9.51767C112.75 9.69853 113.225 9.87939 113.631 10.1055C114.016 10.3315 114.31 10.6028 114.513 10.9193C114.717 11.2358 114.83 11.5975 114.83 12.0497C114.83 12.8635 114.513 13.4739 113.88 13.8809C113.247 14.2878 112.343 14.4913 111.212 14.4913C110.579 14.4913 109.992 14.4461 109.427 14.3104C108.861 14.1748 108.341 14.0165 107.844 13.8131C107.347 13.6096 106.917 13.3835 106.533 13.1122C106.148 12.8635 105.832 12.6149 105.606 12.3436L104.634 14.0617C105.538 14.8078 106.533 15.373 107.641 15.7573C108.748 16.1416 109.924 16.3225 111.167 16.3225C111.981 16.3225 112.75 16.2546 113.473 16.0738C114.174 15.8929 114.784 15.6216 115.304 15.2599C115.824 14.8982 116.231 14.4234 116.548 13.8583C116.842 13.2931 117 12.6149 117 11.8462C117 11.1228 116.864 10.5124 116.616 10.015C116.367 9.51767 116.005 9.11074 115.53 8.74903C115.056 8.40992 114.491 8.11602 113.812 7.88995C113.134 7.66388 112.388 7.4378 111.574 7.25695C110.851 7.09869 110.218 6.94044 109.698 6.78219C109.155 6.64655 108.726 6.46569 108.364 6.26223C108.002 6.05876 107.754 5.81008 107.595 5.51619C107.414 5.2449 107.347 4.88318 107.347 4.43104C107.347 3.61718 107.618 2.98417 108.206 2.50942C108.794 2.05728 109.698 1.8086 110.964 1.8086C111.439 1.8086 111.891 1.87642 112.343 1.96685C112.795 2.05728 113.202 2.19292 113.586 2.35117C113.948 2.50942 114.287 2.69028 114.604 2.87114C114.897 3.0746 115.146 3.27807 115.327 3.48153V3.48153Z" fill="white"/>
</svg>
