<svg width="253" height="36" viewBox="0 0 253 36" fill="none" xmlns="http://www.w3.org/2000/svg">
<path d="M1.12436 29.7715L0 33.3401C2.0532 34.8067 4.59525 35.4911 7.5284 35.4911C10.1682 35.4911 12.2214 35.1 13.7858 34.2201C15.3501 33.389 16.5234 32.2158 17.3545 30.6514C18.1855 29.136 18.7232 27.2783 18.9677 25.1273C19.2121 22.9763 19.3588 20.5321 19.3588 17.8922V0.244446H14.959V17.8922C14.959 20.141 14.8613 22.0964 14.7146 23.7585C14.5191 25.4695 14.1769 26.8872 13.688 28.0605C13.1992 29.2337 12.4659 30.0648 11.4882 30.6514C10.5104 31.238 9.19052 31.5314 7.5284 31.5314C6.11071 31.5314 4.83968 31.3847 3.76419 30.9936C2.63982 30.6514 1.75987 30.2603 1.12436 29.7715V29.7715Z" fill="black"/>
<path d="M52.7542 4.98637L50.8476 10.1683L55.2473 21.3631H46.5456L45.2257 24.7851H56.225L60.3315 34.9534H65.0245L52.7542 4.98637ZM50.8476 0.244446H47.1323L32.9065 34.9534H37.404L48.9899 5.32857L50.8476 0.244446Z" fill="black"/>
<path d="M104.772 20.4343C103.599 18.8699 102.034 17.7456 100.079 17.1589C101.643 16.4745 102.865 15.3502 103.745 13.8836C104.625 12.4659 105.065 10.8527 105.065 9.09277C105.065 8.01729 104.87 6.99068 104.479 5.9152C104.088 4.83971 103.55 3.91088 102.914 3.07982C102.23 2.24876 101.399 1.56436 100.421 1.02662C99.4434 0.537761 98.319 0.244446 97.1457 0.244446H79.8891V27.1316H84.2888V4.05754H95.6303C96.3147 4.05754 96.9991 4.2042 97.6346 4.49751C98.2701 4.83971 98.8079 5.2308 99.2478 5.71965C99.6878 6.2574 100.03 6.89291 100.323 7.57732C100.568 8.3106 100.714 9.09277 100.714 9.87495C100.714 10.706 100.568 11.4393 100.274 12.1237C99.9811 12.8081 99.6389 13.4436 99.1501 13.9325C98.6612 14.4702 98.1235 14.9102 97.4879 15.2035C96.8035 15.4968 96.0703 15.6435 95.337 15.6435H88.6885V19.2121H96.7058C97.4879 19.2121 98.1723 19.4077 98.8567 19.701C99.4923 20.0432 100.03 20.4832 100.519 21.0209C101.008 21.6075 101.35 22.2431 101.643 22.9763C101.937 23.7096 102.083 24.4429 102.083 25.2251C102.083 26.0073 101.937 26.7894 101.643 27.4738C101.301 28.2071 100.91 28.8426 100.421 29.3804C99.8834 29.9181 99.2478 30.3581 98.6123 30.6514C97.9279 30.9936 97.1457 31.1403 96.3636 31.1403H79.8891V34.9534H96.3636C97.7324 34.9534 99.0523 34.7578 100.274 34.3178C101.497 33.9268 102.572 33.2912 103.501 32.5091C104.43 31.7269 105.163 30.7981 105.701 29.6737C106.239 28.5982 106.532 27.3761 106.532 26.0073C106.532 23.8563 105.945 21.9986 104.772 20.4343V20.4343Z" fill="black"/>
<path d="M147.802 20.4343C146.628 18.8699 145.064 17.7456 143.109 17.1589C144.673 16.4745 145.895 15.3502 146.775 13.8836C147.655 12.4659 148.095 10.8527 148.095 9.09277C148.095 8.01729 147.899 6.99068 147.508 5.9152C147.117 4.83971 146.579 3.91088 145.944 3.07982C145.26 2.24876 144.428 1.56436 143.451 1.02662C142.473 0.537761 141.349 0.244446 140.175 0.244446H122.919V27.1316H127.318V4.05754H138.66C139.344 4.05754 140.029 4.2042 140.664 4.49751C141.3 4.83971 141.838 5.2308 142.278 5.71965C142.718 6.2574 143.06 6.89291 143.353 7.57732C143.597 8.3106 143.744 9.09277 143.744 9.87495C143.744 10.706 143.597 11.4393 143.304 12.1237C143.011 12.8081 142.669 13.4436 142.18 13.9325C141.691 14.4702 141.153 14.9102 140.518 15.2035C139.833 15.4968 139.1 15.6435 138.367 15.6435H131.718V19.2121H139.735C140.518 19.2121 141.202 19.4077 141.886 19.701C142.522 20.0432 143.06 20.4832 143.549 21.0209C144.037 21.6075 144.38 22.2431 144.673 22.9763C144.966 23.7096 145.113 24.4429 145.113 25.2251C145.113 26.0073 144.966 26.7894 144.673 27.4738C144.331 28.2071 143.94 28.8426 143.451 29.3804C142.913 29.9181 142.278 30.3581 141.642 30.6514C140.958 30.9936 140.175 31.1403 139.393 31.1403H122.919V34.9534H139.393C140.762 34.9534 142.082 34.7578 143.304 34.3178C144.526 33.9268 145.602 33.2912 146.531 32.5091C147.459 31.7269 148.193 30.7981 148.73 29.6737C149.268 28.5982 149.561 27.3761 149.561 26.0073C149.561 23.8563 148.975 21.9986 147.802 20.4343V20.4343Z" fill="black"/>
<path d="M165.948 34.9534H170.348V0.244446H165.948V34.9534Z" fill="black"/>
<path d="M197.485 34.9534H201.884V8.55503H197.485V34.9534ZM185.508 0.244446V4.15531H213.861V0.244446H185.508Z" fill="black"/>
<path d="M249.382 7.52844L251.436 3.95978C249.969 2.78652 248.258 1.8088 246.4 1.07552C244.494 0.391117 242.392 3.05176e-05 240.045 3.05176e-05C238.236 3.05176e-05 236.574 0.244459 235.059 0.684431C233.495 1.1244 232.175 1.75992 231.099 2.63986C229.975 3.51981 229.095 4.59529 228.508 5.86632C227.873 7.13735 227.579 8.60393 227.579 10.266C227.579 11.6348 227.775 12.8081 228.264 13.7858C228.704 14.7635 229.388 15.5946 230.268 16.279C231.148 16.9634 232.272 17.55 233.641 18.0389C234.961 18.5277 236.526 19.0166 238.285 19.4077C239.85 19.7988 241.267 20.1899 242.538 20.5809C243.81 20.972 244.836 21.3631 245.716 21.852C246.547 22.3408 247.183 22.9275 247.623 23.6119C248.063 24.2963 248.307 25.0784 248.307 26.0562C248.307 27.816 247.623 29.136 246.254 30.0159C244.885 30.8958 242.93 31.3358 240.485 31.3358C239.116 31.3358 237.845 31.238 236.623 30.9447C235.401 30.6514 234.277 30.3092 233.201 29.8692C232.126 29.4293 231.197 28.9404 230.366 28.3538C229.535 27.816 228.85 27.2783 228.362 26.6917L226.26 30.407C228.215 32.0202 230.366 33.2424 232.761 34.0734C235.157 34.9045 237.699 35.2956 240.387 35.2956C242.147 35.2956 243.809 35.1489 245.374 34.7578C246.889 34.3667 248.209 33.7801 249.334 32.9979C250.458 32.2158 251.338 31.1892 252.022 29.967C252.658 28.7449 253 27.2783 253 25.6162C253 24.0518 252.707 22.7319 252.169 21.6564C251.631 20.5809 250.849 19.701 249.822 18.9188C248.796 18.1855 247.574 17.55 246.107 17.0612C244.641 16.5723 243.027 16.0835 241.267 15.6924C239.703 15.3502 238.334 15.008 237.21 14.6658C236.037 14.3725 235.108 13.9814 234.326 13.5414C233.543 13.1014 233.006 12.5637 232.664 11.9282C232.272 11.3415 232.126 10.5594 232.126 9.58164C232.126 7.82176 232.712 6.45295 233.983 5.42635C235.254 4.44864 237.21 3.91089 239.948 3.91089C240.974 3.91089 241.952 4.05755 242.93 4.25309C243.907 4.44864 244.787 4.74195 245.618 5.08415C246.4 5.42635 247.134 5.81744 247.818 6.20853C248.454 6.6485 248.991 7.08847 249.382 7.52844V7.52844Z" fill="black"/>
</svg>
